<svg xmlns="http://www.w3.org/2000/svg" xmlns:xlink="http://www.w3.org/1999/xlink" fill="#555555" width="200" height="auto" version="1.0" x="0px" y="0px" viewBox="0 0 24 24" enable-background="new 0 0 24 24" xml:space="preserve"><path d="M19.1,18.5c-0.5-0.5-9-8.8-10.4-9.8c-2-1.3-4.6-0.8-6,1.2c-1.3,2-0.8,4.7,1.2,6c1.5,1,12.5,5.6,13,5.9  c1,0.4,2.1,0.4,2.7-0.5C20.2,20.3,19.8,19.3,19.1,18.5z M6.1,13.8c-0.8-0.1-1.4-0.8-1.3-1.6s0.8-1.4,1.6-1.3  c0.8,0.1,1.4,0.8,1.3,1.6C7.7,13.3,6.9,13.9,6.1,13.8z"></path></svg>
